<?xml version="1.0" standalone="no"?>
<!DOCTYPE svg PUBLIC "-//W3C//DTD SVG 20010904//EN"
 "http://www.w3.org/TR/2001/REC-SVG-20010904/DTD/svg10.dtd">
<svg version="1.0" xmlns="http://www.w3.org/2000/svg"
 width="300.000000pt" height="300.000000pt" viewBox="0 0 300.000000 300.000000"
 preserveAspectRatio="xMidYMid meet">
<style>
    g {
      fill: #000000;
    }
    @media (prefers-color-scheme: dark) {
      g {
        fill: #FFF;
      }
    }
</style>

<g transform="translate(0.000000,300.000000) scale(0.100000,-0.100000)" stroke="none">
<path d="M1501 2429 c-30 -69 -136 -215 -235 -324 -63 -69 -106 -126 -106
-138 0 -11 16 -44 36 -72 39 -57 56 -112 48 -159 -9 -54 -36 -105 -58 -112
-12 -3 -39 -14 -61 -24 -22 -10 -60 -23 -85 -30 -27 -8 -62 -29 -87 -54 -24
-22 -43 -35 -43 -28 0 7 -11 12 -25 12 -19 0 -26 -6 -31 -27 -8 -41 -43 -103
-81 -146 -37 -41 -40 -58 -17 -81 22 -23 55 -29 129 -24 36 2 65 0 65 -5 0
-21 -23 -48 -60 -68 -69 -39 -42 -71 58 -67 31 1 63 -1 70 -6 7 -4 53 6 105
23 71 24 108 43 160 85 67 54 68 54 101 41 18 -8 67 -17 108 -21 66 -6 84 -4
131 16 l56 23 90 -67 c125 -93 227 -130 249 -90 8 14 13 11 37 -20 24 -32 33
-37 64 -34 34 3 36 5 48 58 16 69 2 144 -39 211 -27 45 -38 112 -19 123 14 9
20 58 8 83 -17 37 -125 102 -193 114 -32 6 -60 12 -62 14 -1 1 19 17 46 34 74
47 195 181 164 181 -5 0 -29 -7 -53 -16 -54 -19 -129 -34 -129 -25 0 3 26 17
56 30 138 60 244 152 296 259 17 34 29 64 27 66 -2 2 -66 -31 -142 -72 -76
-41 -140 -72 -143 -70 -2 3 25 25 62 48 76 50 179 147 217 205 26 39 64 162
53 172 -3 3 -22 -8 -43 -25 -93 -73 -263 -174 -400 -236 -81 -38 -167 -77
-190 -88 -23 -10 -49 -31 -59 -45 -15 -24 -16 -34 -4 -90 18 -94 3 -153 -62
-236 -29 -36 -74 -67 -98 -67 -6 0 7 24 29 53 55 74 81 130 88 190 l6 52 -34
-31 c-83 -75 -122 -85 -55 -14 62 67 107 163 113 244 3 37 1 66 -4 69 -6 4
-40 -32 -77 -78 -37 -46 -72 -88 -78 -91 -12 -8 -11 -5 30 60 63 101 89 235
61 315 -14 39 -21 39 -38 0z m-332 -853 c10 -12 8 -13 -9 -9 -25 7 -37 23 -17
23 8 0 20 -6 26 -14z m931 -124 c0 -9 -7 -6 -20 11 -11 14 -20 29 -20 33 0 4
9 -1 20 -11 11 -10 20 -25 20 -33z m-1205 28 c3 -5 -1 -10 -9 -10 -9 0 -16 5
-16 10 0 6 4 10 9 10 6 0 13 -4 16 -10z m160 -11 c10 -14 1 -21 -19 -13 -9 3
-13 10 -10 15 7 12 21 11 29 -2z m-214 -101 c-11 -25 -29 -52 -41 -61 -21 -14
-21 -16 -4 -36 13 -14 30 -21 54 -21 48 0 138 27 173 52 25 18 28 25 23 52 -6
29 -6 30 11 14 46 -47 -54 -124 -175 -135 -110 -10 -156 32 -96 88 14 13 35
41 46 62 26 53 33 41 9 -15z m1226 -17 c18 -24 85 -151 79 -151 -2 0 -21 27
-41 60 -20 33 -59 80 -88 106 l-52 46 45 -23 c25 -12 50 -29 57 -38z m-1106
25 c-19 -23 -50 -29 -67 -15 -14 11 -10 15 28 24 50 13 56 11 39 -9z m573
-116 c43 0 57 -3 46 -10 -23 -15 -104 -12 -141 6 l-34 15 34 -5 c18 -4 61 -6
95 -6z m-417 -37 c-9 -15 -33 -44 -54 -63 l-38 -35 31 35 c18 19 39 50 49 68
9 19 19 32 21 29 3 -3 -1 -18 -9 -34z m818 -3 c11 -4 30 -27 43 -51 21 -39 12
-34 -21 12 -7 9 -36 28 -64 43 -61 30 -71 44 -15 20 20 -9 46 -19 57 -24z
m-655 20 c0 -24 -64 -79 -108 -94 -40 -13 -44 -13 -28 -1 11 8 25 15 31 15 6
0 31 20 55 45 47 48 50 50 50 35z"/>
<path d="M1162 1055 c-202 -24 -448 -88 -507 -132 -11 -8 -13 -13 -5 -10 91
33 204 67 235 71 22 3 81 12 130 20 139 23 306 36 465 36 203 0 345 -13 593
-55 52 -9 183 -45 221 -60 21 -9 35 -12 32 -6 -10 15 -158 70 -249 91 -171 40
-287 52 -547 55 -175 3 -290 0 -368 -10z"/>
<path d="M1150 984 c-61 -23 -69 -24 -133 -13 -87 14 -99 6 -15 -11 l63 -12
-47 -24 c-42 -21 -69 -44 -53 -44 3 0 33 14 67 31 58 29 66 31 137 25 42 -4
93 -9 114 -12 l38 -6 -46 -49 c-64 -69 -56 -72 14 -6 l60 57 132 0 133 0 58
-57 c69 -68 77 -63 12 7 -33 35 -42 50 -30 50 9 0 59 5 110 10 l93 11 77 -35
c84 -39 93 -32 15 13 l-49 28 71 12 c95 18 80 27 -19 11 -76 -12 -82 -11 -152
14 -86 31 -103 28 -28 -5 l53 -23 -50 -7 c-107 -15 -154 -11 -193 18 -37 27
-37 27 -14 2 12 -14 22 -27 22 -30 0 -7 -179 -9 -197 -2 -11 4 -9 11 9 31 21
23 22 24 2 14 -11 -6 -26 -18 -34 -26 -8 -11 -29 -16 -60 -16 -74 0 -170 12
-170 21 0 5 6 9 13 10 19 1 94 37 77 38 -8 0 -44 -11 -80 -25z"/>
<path d="M206 613 c-10 -32 -21 -64 -23 -70 -10 -26 43 -14 55 11 6 14 21 26
33 28 30 4 37 28 9 28 -31 0 -19 24 15 30 16 3 30 11 33 18 2 8 -12 12 -50 12
l-54 0 -18 -57z"/>
<path d="M336 613 c-10 -32 -21 -64 -23 -70 -4 -10 11 -13 56 -13 48 0 61 3
61 15 0 10 -10 15 -30 15 -35 0 -34 -4 -15 50 20 56 19 60 -8 60 -20 0 -26 -9
-41 -57z"/>
<path d="M467 638 c4 -18 7 -50 6 -70 -1 -33 2 -38 22 -38 16 0 26 8 33 28 5
16 24 45 41 64 17 20 31 38 31 42 0 13 -44 5 -62 -10 -16 -16 -18 -16 -24 0
-3 9 -17 16 -31 16 -23 0 -24 -2 -16 -32z"/>
<path d="M601 608 c-26 -77 -26 -78 2 -78 20 0 26 9 41 58 10 31 21 63 23 70
3 7 -4 12 -20 12 -22 0 -28 -8 -46 -62z"/>
<path d="M686 613 c-10 -32 -21 -64 -23 -70 -3 -8 4 -13 20 -13 20 0 27 6 33
33 l7 32 14 -32 c9 -24 19 -33 37 -33 21 0 27 9 45 62 26 77 26 78 -3 78 -17
0 -26 -8 -33 -32 -10 -33 -12 -32 -28 17 -2 8 -15 15 -28 15 -20 0 -26 -9 -41
-57z"/>
<path d="M866 639 c-41 -48 -33 -108 15 -111 62 -4 88 2 93 22 3 11 9 29 12
41 5 18 2 20 -28 17 -25 -2 -33 -8 -33 -23 0 -11 -8 -21 -18 -23 -24 -5 -23
40 2 62 16 14 23 15 39 5 11 -7 27 -9 36 -6 14 5 15 11 6 27 -8 15 -21 20 -54
20 -37 0 -48 -5 -70 -31z"/>
<path d="M1105 658 c-3 -7 -14 -39 -24 -70 l-20 -58 57 0 c66 0 86 10 88 42 1
13 5 31 9 40 16 38 2 53 -53 56 -36 2 -54 -1 -57 -10z m65 -27 c0 -12 -20 -25
-27 -18 -7 7 6 27 18 27 5 0 9 -4 9 -9z m-10 -56 c0 -8 -9 -15 -20 -15 -13 0
-18 5 -14 15 4 8 12 15 20 15 8 0 14 -7 14 -15z"/>
<path d="M1246 613 c-10 -32 -21 -64 -24 -71 -3 -10 24 -12 132 -10 l136 3 0
67 c0 66 -1 68 -25 68 -19 0 -34 -14 -70 -67 -25 -37 -45 -62 -45 -55 0 7 -14
12 -35 12 -44 0 -38 27 8 32 42 4 48 28 7 28 -18 0 -29 4 -25 10 3 6 22 10 41
10 24 0 34 5 34 15 0 12 -13 15 -58 15 l-58 0 -18 -57z m200 -29 c-4 -9 -9
-15 -11 -12 -3 3 -3 13 1 22 4 9 9 15 11 12 3 -3 3 -13 -1 -22z"/>
<path d="M1536 613 c-10 -32 -21 -64 -23 -70 -3 -8 4 -13 19 -13 17 0 29 8 36
25 6 14 16 25 22 25 5 0 10 -11 10 -25 0 -20 5 -25 25 -25 21 0 25 5 25 30 0
17 7 42 16 55 24 37 5 55 -60 55 l-52 0 -18 -57z m89 17 c3 -6 -1 -13 -10 -16
-19 -8 -30 0 -20 15 8 14 22 14 30 1z"/>
<path d="M1792 654 c-12 -8 -22 -19 -22 -25 0 -13 34 -11 48 3 6 6 15 8 19 4
4 -4 -2 -15 -15 -24 -17 -13 -20 -20 -11 -29 6 -6 8 -17 4 -24 -6 -9 -11 -8
-21 5 -14 19 -45 18 -51 -1 -7 -19 43 -46 71 -39 34 8 59 35 53 57 -3 11 -1
22 4 25 5 3 9 16 9 29 0 36 -48 47 -88 19z"/>
<path d="M1901 608 c-12 -34 -21 -66 -21 -70 0 -4 24 -8 54 -8 66 0 94 20 103
72 8 52 -8 68 -67 68 l-48 0 -21 -62z m84 21 c11 -16 -3 -56 -21 -63 -25 -9
-27 -2 -14 38 12 36 23 45 35 25z"/>
<path d="M2136 613 c-10 -32 -21 -64 -23 -70 -3 -8 4 -13 20 -13 17 0 28 7 32
20 4 11 15 20 26 20 23 0 61 18 71 34 13 19 9 54 -8 60 -9 3 -35 6 -58 6 l-42
0 -18 -57z m82 9 c2 -7 -5 -12 -17 -12 -14 0 -19 5 -14 15 6 17 25 15 31 -3z"/>
<path d="M2286 613 c-10 -32 -21 -64 -23 -70 -3 -8 4 -13 19 -13 17 0 29 8 36
25 6 14 16 25 22 25 5 0 10 -11 10 -25 0 -20 5 -25 25 -25 21 0 25 5 25 30 0
17 7 42 16 55 24 37 5 55 -60 55 l-52 0 -18 -57z m89 17 c3 -6 -1 -13 -10 -16
-19 -8 -30 0 -20 15 8 14 22 14 30 1z"/>
<path d="M2441 608 c-26 -77 -26 -78 2 -78 20 0 26 9 41 58 10 31 21 63 23 70
3 7 -4 12 -20 12 -22 0 -28 -8 -46 -62z"/>
<path d="M2521 608 c-26 -76 -26 -78 -1 -78 13 0 25 11 34 33 l14 32 7 -32 c6
-27 12 -33 34 -33 24 0 29 6 45 58 10 31 21 63 23 70 3 8 -4 12 -21 12 -21 0
-28 -6 -32 -30 -4 -16 -10 -30 -14 -30 -4 0 -10 14 -13 30 -5 23 -12 30 -31
30 -21 0 -27 -9 -45 -62z"/>
<path d="M2690 650 c0 -11 7 -20 15 -20 8 0 15 -2 15 -4 0 -2 -7 -23 -15 -46
-19 -54 -20 -52 12 -48 23 2 30 11 42 50 10 34 20 48 35 50 11 2 22 11 24 21
3 15 -5 17 -62 17 -59 0 -66 -2 -66 -20z"/>
</g>
</svg>
